<svg xmlns="http://www.w3.org/2000/svg" xmlns:xlink="http://www.w3.org/1999/xlink" width="186.016" height="56.762" viewBox="0 0 186.016 56.762">
  <defs>
    <linearGradient id="linear-gradient" x1="1.351" y1="0.369" x2="0.362" y2="0.521" gradientUnits="objectBoundingBox">
      <stop offset="0" stop-color="#fff070"/>
      <stop offset="0.157" stop-color="#f3db5e"/>
      <stop offset="0.533" stop-color="#dab13a"/>
      <stop offset="0.826" stop-color="#ca9623"/>
      <stop offset="1" stop-color="#c58d1b"/>
    </linearGradient>
    <linearGradient id="linear-gradient-2" x1="-5.949" y1="1.013" x2="3.351" y2="0.274" xlink:href="#linear-gradient"/>
    <linearGradient id="linear-gradient-3" x1="-10.994" y1="1.179" x2="1.749" y2="0.414" xlink:href="#linear-gradient"/>
    <linearGradient id="linear-gradient-4" x1="-9.768" y1="1.094" x2="2.985" y2="0.329" xlink:href="#linear-gradient"/>
    <linearGradient id="linear-gradient-5" x1="-4.514" y1="0.868" x2="5.917" y2="0.103" xlink:href="#linear-gradient"/>
    <linearGradient id="linear-gradient-6" x1="-4.053" y1="0.781" x2="8.353" y2="0.016" xlink:href="#linear-gradient"/>
    <linearGradient id="linear-gradient-7" x1="-2.261" y1="0.688" x2="8.296" y2="-0.077" xlink:href="#linear-gradient"/>
    <linearGradient id="linear-gradient-8" x1="-1.024" y1="0.601" x2="9.008" y2="-0.164" xlink:href="#linear-gradient"/>
    <linearGradient id="linear-gradient-9" x1="0.085" y1="0.534" x2="9.755" y2="-0.205" xlink:href="#linear-gradient"/>
    <linearGradient id="linear-gradient-10" x1="-612.147" y1="190.704" x2="414.533" y2="-128.04" xlink:href="#linear-gradient"/>
    <linearGradient id="linear-gradient-11" x1="-109.121" y1="25.196" x2="73.248" y2="-15.89" xlink:href="#linear-gradient"/>
    <linearGradient id="linear-gradient-12" x1="-6.111" y1="0.931" x2="5.21" y2="0.192" xlink:href="#linear-gradient"/>
    <linearGradient id="linear-gradient-13" x1="-476.672" y1="134.053" x2="321.523" y2="-89.35" xlink:href="#linear-gradient"/>
  </defs>
  <g id="Group_2" data-name="Group 2" transform="translate(-170.003 0)">
    <g id="logo" transform="translate(170.003 0)">
      <path id="Path_1" data-name="Path 1" d="M886.758,393.659a.806.806,0,0,0,.086-.033l.049-.022,25.912-13.757a.792.792,0,0,0,.417-.7V364.963a.8.8,0,0,0-.334-.647.876.876,0,0,0-.1-.063l-4.975-2.641,4.978-2.643a.8.8,0,0,0,.432-.706v-6.775a.794.794,0,0,0-.334-.646.823.823,0,0,0-.1-.063l-25.9-13.75a.8.8,0,0,0-.746,0l-25.9,13.75-.047.03a.756.756,0,0,0-.068.046l-.015.013c-.021.017-.041.035-.06.054l-.013.014c-.021.023-.039.043-.056.065-.027.038-.043.061-.057.086a.953.953,0,0,0-.045.093.8.8,0,0,0-.06.3v6.786a.794.794,0,0,0,.422.7l4.974,2.641-5.042,2.683c-.005,0-.028.019-.049.036l-.014.012a.808.808,0,0,0-.064.057l-.011.012c-.02.022-.039.043-.056.065-.027.039-.043.062-.057.086s-.034.065-.045.093a.8.8,0,0,0-.06.3v14.2a.794.794,0,0,0,.422.7l25.9,13.749.034.014.038.017a.547.547,0,0,0,.058.02l.072.02.143.019a.6.6,0,0,0,.139-.007.956.956,0,0,0,.109-.024Zm24.875-14.987-.05.027-24.268,12.884v-12.4l.05-.027,24.268-12.884Zm0-20.887-.2.106-24.118,12.8v-4.989l.2-.106,24.118-12.8Zm-25.114-19.158.177.094,24.026,12.756-24.2,12.85-.177-.094-24.026-12.756Zm-25.1,19.161V352.8l24.306,12.905v4.986Zm24.305,33.792-24.307-12.9v-12.4l24.307,12.9Zm.793-13.776-.177-.094-24.026-12.756,4.6-2.445.044.023,19.223,10.2.032.015a.581.581,0,0,0,.058.02l.069.019.143.019a.594.594,0,0,0,.143-.007.912.912,0,0,0,.108-.023l.021-.006a.84.84,0,0,0,.086-.033l.048-.022,19.226-10.207,4.6,2.443Z" transform="translate(-859.828 -336.934)" fill="url(#linear-gradient)"/>
    </g>
    <text id="ĐÀO_TẠO_CHUYÊN_GIA_LẬP_TRÌNH" data-name="ĐÀO TẠO CHUYÊN GIA LẬP TRÌNH" transform="translate(231.582 40.91)" fill="#c8921f" font-size="5" font-family="ArialMT, Arial" letter-spacing="0.235em"><tspan x="0" y="0">ĐÀO TẠO CHUYÊN GIA LẬP TRÌNH</tspan></text>
    <g id="Logo_s_name" data-name="Logo&apos;s name" transform="translate(231.35 17.702)">
      <g id="Group_1" data-name="Group 1" transform="translate(0)">
        <path id="Path_2" data-name="Path 2" d="M3427.582,645.57a7.208,7.208,0,0,1,5.1,1.741,6.412,6.412,0,0,1,1.035,8.01q-1.864,2.995-6.113,2.995a7.17,7.17,0,0,1-5.069-1.741,6.06,6.06,0,0,1-1.531-2.228,6.413,6.413,0,0,1-.459-2.409,6.323,6.323,0,0,1,.945-3.383Q3423.3,645.624,3427.582,645.57Zm.009,2.084a4.228,4.228,0,0,0-2.926,1.046,4.474,4.474,0,0,0,0,6.477,4.652,4.652,0,0,0,5.879,0,4.1,4.1,0,0,0,1.063-1.524,4.392,4.392,0,0,0,.324-1.66,4.125,4.125,0,0,0-1.387-3.292,4.4,4.4,0,0,0-2.953-1.046Z" transform="translate(-3334.917 -645.554)" fill="url(#linear-gradient-2)"/>
        <path id="Path_3" data-name="Path 3" d="M3915.661,649.3v2.03h3.817v10.283h2.683V651.33h3.808V649.3Z" transform="translate(-3801.301 -649.067)" fill="url(#linear-gradient-3)"/>
        <path id="Path_4" data-name="Path 4" d="M3707.226,649.3v12.313h2.683v-5.385h4.979V654.27h-4.979V651.33h7.617V649.3Z" transform="translate(-3604.964 -649.067)" fill="url(#linear-gradient-4)"/>
        <path id="Path_5" data-name="Path 5" d="M2960.951,659.884l-2.386-3.4q3.34-.514,3.34-3.527a4.163,4.163,0,0,0-.333-1.66,2.861,2.861,0,0,0-1.062-1.272,3.954,3.954,0,0,0-1.436-.568,12.054,12.054,0,0,0-2.229-.163h-7.113v12.313h2.683v-5.024h3.277l2.485,3.626a13.356,13.356,0,0,1,.918,1.4h3.23A20.694,20.694,0,0,1,2960.951,659.884Zm-3.1-5.385a10.517,10.517,0,0,1-1.3.054h-4.142v-3.229h4.142a11.3,11.3,0,0,1,1.3.05,1.944,1.944,0,0,1,.689.23,1.644,1.644,0,0,1,0,2.67A2.049,2.049,0,0,1,2957.854,654.5Z" transform="translate(-2891.435 -649.062)" fill="url(#linear-gradient-5)"/>
        <path id="Path_6" data-name="Path 6" d="M2711.035,659.583V656.21h4.988v-1.957h-4.988V651.33h7.689V649.3h-10.372v12.313h10.588v-2.03Z" transform="translate(-2664.064 -649.067)" fill="url(#linear-gradient-6)"/>
        <path id="Path_7" data-name="Path 7" d="M2462.608,655.162a2.687,2.687,0,0,0,1.666-2.6,2.959,2.959,0,0,0-1.089-2.472,3.328,3.328,0,0,0-1.279-.613,8.3,8.3,0,0,0-1.927-.18h-7.743v12.313h7.824a7.976,7.976,0,0,0,1.994-.212,3.881,3.881,0,0,0,1.418-.69,3.184,3.184,0,0,0,1.206-2.643A2.892,2.892,0,0,0,2462.608,655.162Zm-7.689-.965v-2.868h4.709a2.655,2.655,0,0,1,1.521.329,1.279,1.279,0,0,1,.45,1.105,1.312,1.312,0,0,1-.477,1.118,2.6,2.6,0,0,1-1.495.316m-4.709,5.385v-3.356h4.556a3.539,3.539,0,0,1,1.828.352,1.7,1.7,0,0,1,0,2.652" transform="translate(-2422.813 -649.067)" fill="url(#linear-gradient-7)"/>
        <path id="Path_8" data-name="Path 8" d="M2207.038,649.3l-.4.591-.323.475-2.578,3.8-2.512-3.8-.314-.475-.391-.591h-3.348l.429.591h0l4.777,6.571v5.151h2.683V656.46l4.777-6.571h0l.429-.591Z" transform="translate(-2182.551 -649.066)" fill="url(#linear-gradient-8)"/>
        <path id="Path_9" data-name="Path 9" d="M1957.7,653.924a6.628,6.628,0,0,1-1.061.871l-.112.072a6.534,6.534,0,0,1-.669.372,6.7,6.7,0,0,1-3.007.707,5.039,5.039,0,0,1-3.358-1.055c-.035-.029-.067-.059-.1-.088s-.057-.049-.084-.074a3.983,3.983,0,0,1-1.29-2.974c0-.031,0-.061,0-.093a4.013,4.013,0,0,1,1.477-3.229,5.039,5.039,0,0,1,3.358-1.055,6.717,6.717,0,0,1,1.583.187,6.832,6.832,0,0,1,1.4.507,6.6,6.6,0,0,1,1.922,1.25l1.032-1.551.022-.034a6.62,6.62,0,0,0-1.315-1.007l-.215-.121a11.715,11.715,0,0,0-2.256-1.009,8.961,8.961,0,0,0-2.5-.307,10.331,10.331,0,0,0-2.06.2,6.38,6.38,0,0,0-3.873,2.284l0,0a6.083,6.083,0,0,0-1.3,3.885,6.261,6.261,0,0,0,.729,3,5.785,5.785,0,0,0,.888,1.247,5.937,5.937,0,0,0,.841.747,6.763,6.763,0,0,0,2.53,1.139,9.877,9.877,0,0,0,2.242.241,8.982,8.982,0,0,0,2.517-.311,12.548,12.548,0,0,0,2.575-1.187l.031-.017c.118-.069.225-.129.322-.181a6.609,6.609,0,0,0,.91-.67Z" transform="translate(-1945.277 -645.293)" fill="url(#linear-gradient-9)"/>
        <path id="Path_10" data-name="Path 10" d="M3316.015,684.186l.127.03Z" transform="translate(-3236.458 -681.929)" fill="url(#linear-gradient-10)"/>
        <path id="Path_11" data-name="Path 11" d="M3321.055,685.421q.367.1.72.229A6.167,6.167,0,0,0,3321.055,685.421Z" transform="translate(-3241.206 -683.092)" fill="url(#linear-gradient-11)"/>
        <path id="Path_12" data-name="Path 12" d="M3204.477,653.022c-.02-.045-.04-.09-.062-.134s-.051-.088-.075-.133a3.068,3.068,0,0,0-.884-1.024l-.009-.008a4.779,4.779,0,0,0-1.382-.658,11.564,11.564,0,0,0-2.039-.37l-1.414-.144a13.053,13.053,0,0,1-1.854-.271q-.838-.252-.837-.947a1.144,1.144,0,0,1,.329-.785,2.011,2.011,0,0,1,.86-.541,5.5,5.5,0,0,1,1.684-.235,7.341,7.341,0,0,1,1.5.15l.128.03.165.042a6.164,6.164,0,0,1,.72.229,8.075,8.075,0,0,1,2.2,1.243l1.06-2.091a6.574,6.574,0,0,0-.86-.472q-.279-.127-.571-.228a15.6,15.6,0,0,0-2.221-.748c-.033-.008-.068-.013-.1-.021a9.666,9.666,0,0,0-2.095-.218,5.883,5.883,0,0,0-4.214,1.344,3.386,3.386,0,0,0-1.066,2.457c0,.041-.005.081-.005.123a3.288,3.288,0,0,0,.423,1.678,3.083,3.083,0,0,0,.587.738,2.99,2.99,0,0,0,.7.48,5.067,5.067,0,0,0,1.152.419,18.976,18.976,0,0,0,1.972.275l1.386.144a8.706,8.706,0,0,1,1.855.334.9.9,0,0,1,.657.875,1.263,1.263,0,0,1-.233.709c-.016.024-.029.048-.046.071a1.867,1.867,0,0,1-.378.374,2.194,2.194,0,0,1-.369.226,4.7,4.7,0,0,1-2.044.406,6.89,6.89,0,0,1-.919-.064,7.58,7.58,0,0,1-3.472-1.307,6.628,6.628,0,0,1-.582-.467l-.959,2.175a6.589,6.589,0,0,0,.818.476c.069.03.147.065.235.106.039.019.077.035.116.054a11.4,11.4,0,0,0,2.714.917,10.121,10.121,0,0,0,1.988.2,9.4,9.4,0,0,0,2.548-.334,4.5,4.5,0,0,0,2.35-1.362,3.517,3.517,0,0,0,.837-2.309A3.452,3.452,0,0,0,3204.477,653.022Z" transform="translate(-3120.739 -645.666)" fill="url(#linear-gradient-12)"/>
        <path id="Path_13" data-name="Path 13" d="M3318.219,684.7c.055.013.11.028.165.042Z" transform="translate(-3238.534 -682.408)" fill="url(#linear-gradient-13)"/>
      </g>
    </g>
  </g>
</svg>
